<?xml version="1.0" encoding="UTF-8"?>
<svg id="_图层_1" data-name="图层 1" xmlns="http://www.w3.org/2000/svg" viewBox="0 0 365.33 285.33">
  <defs>
    <style>
      .cls-1 {
        stroke-linecap: round;
      }

      .cls-1, .cls-2 {
        fill: none;
        stroke: #040000;
        stroke-miterlimit: 10;
        stroke-width: 12.12px;
      }
    </style>
  </defs>
  <line class="cls-1" x1="146.36" y1="178.38" x2="215.15" y2="178.38"/>
  <path class="cls-2" d="m113.56,182.89c0,12.96-10.5,23.47-23.47,23.47s-23.46-10.5-23.46-23.47,10.5-23.47,23.46-23.47,23.47,10.5,23.47,23.47Z"/>
  <path class="cls-2" d="m247.94,182.89c0,12.96,10.5,23.47,23.47,23.47s23.46-10.5,23.46-23.47-10.5-23.47-23.46-23.47-23.47,10.5-23.47,23.47Z"/>
  <path class="cls-2" d="m247.94,182.89c0,12.96-10.5,23.47-23.47,23.47h-87.45c-12.96,0-23.47-10.5-23.47-23.47"/>
  <path class="cls-2" d="m113.56,182.89c0,12.96-10.5,23.47-23.47,23.47s-23.46-10.5-23.46-23.47,10.5-23.47,23.46-23.47,23.47,10.5,23.47,23.47Z"/>
  <path class="cls-2" d="m247.94,182.89c0,12.96,10.5,23.47,23.47,23.47s23.46-10.5,23.46-23.47-10.5-23.47-23.46-23.47-23.47,10.5-23.47,23.47Z"/>
  <path class="cls-2" d="m286.91,165.28c-12.71-90.03-15.88-99.03-106.15-99.03s-93.44,9-106.15,99.03"/>
</svg>